A.Separation.2011.Joadaei.Nader.az.Simin.DVDRip.Xvid.720p.MASOUD.mkv

General 
Unique ID                  : 299376570964398675171803805682356976065
                             (0xE139D48C5DF4415AD156A479A2FFF9C1) 
Complete name              : A.Separation.2011.Joadaei.Nader.az.Simin.DVDRip.Xvid.h264.ac3.MASOUD.mkv 
Format                     : Matroska 
Format version             : Version 2 
File size                  : 1.47 GiB 
Duration                   : 1h 57mn 
Overall bit rate           : 1 782 Kbps 
Writing application        : HandBrake 0.9.5 
Writing library            : libmkv 0.6.4.1 

Video 
ID                         : 1 
Format                     : AVC 
Format/Info                : Advanced Video Codec 
Format profile             : High@L3.0 
Format settings, CABAC     : Yes 
Format settings, ReFrames  : 4 frames 
Codec ID                   : V_MPEG4/ISO/AVC 
Duration                   : 1h 57mn 
Bit rate                   : 1 574 Kbps 
Width                      : 720 pixels 
Height                     : 384 pixels 
Display aspect ratio       : 1.875 
Frame rate mode            : Variable 
Frame rate                 : 25.000 fps 
Color space                : YUV 
Chroma subsampling         : 4:2:0 
Bit depth                  : 8 bits 
Scan type                  : Progressive 
Bits/(Pixel*Frame)         : 0.228 
Stream size                : 1.28 GiB (87%) 
Writing library            : x264 core 112 
Encoding settings          : cabac=1 / ref=3 / deblock=1:0:0 / nalyse=0x3:0x113
                             / me=hex / subme=7 / psy=1 / psy_rd=1.00:0.00 /
                             mixed_ref=1 / me_range=16 / chroma_me=1 / 
                             trellis=1 / 8x8dct=1 / cqm=0 / deadzone=21,11 /
                             fast_pskip=1 / chroma_qp_offset=-2 / threads=3 /
                             sliced_threads=0 / nr=0 / decimate=1 /
                             interlaced=0 / constrained_intra=0 / bframes=3 /
                             b_pyramid=2 / b_adapt=2 / b_bias=0 / direct=1 /
                             weightb=1 / open_gop=0 / weightp=2 / keyint=250 /
                             keyint_min=25 / scenecut=40 / intra_refresh=0 /
                             rc_lookahead=50 / rc=abr / mbtree=1 / bitrate=1574
                             / ratetol=1.0 / qcomp=0.60 / qpmin=3 / qpmax=51 /
                             qpstep=4 / ip_ratio=1.40 / aq=1:1.00 
Language                   : English 
Color primaries            : BT.601-6 525, BT.1358 525, BT.1700 NTSC, SMPTE 170M 
Transfer characteristics   : BT.709-5, BT.1361 
Matrix coefficients        : BT.601-6 525, BT.1358 525, BT.1700 NTSC, SMPTE 170M 

Audio 
ID                         : 2 
Format                     : AC-3 
Format/Info                : Audio Coding 3 
Mode extension             : CM (complete main) 
Codec ID                   : A_AC3 
Duration                   : 1h 57mn 
Bit rate mode              : Constant 
Bit rate                   : 192 Kbps 
Channel(s)                 : 2 channels 
Channel positions          : Front: L R 
Sampling rate              : 48.0 KHz 
Bit depth                  : 16 bits 
Compression mode           : Lossy 
Stream size                : 162 MiB (11%) 
Language                   : Persian 

Text 
ID                         : 3 
Format                     : VobSub 
Codec ID                   : S_VOBSUB 
Codec ID/Info              : The same subtitle format used on DVDs 
Language                   : Turkish 

Menu 
00:00:00.000               : Chapter 1 
00:05:13.360               : Chapter 2 
00:12:08.200               : Chapter 3 
00:18:25.680               : Chapter 4 
00:21:10.120               : Chapter 5 
00:25:40.320               : Chapter 6 
00:31:26.560               : Chapter 7 
00:33:48.120               : Chapter 8 
00:43:33.680               : Chapter 9 
00:50:49.320               : Chapter 10 
00:56:53.680               : Chapter 11 
01:01:47.280               : Chapter 12 
01:12:01.040               : Chapter 13 
01:21:27.560               : Chapter 14 
01:30:46.000               : Chapter 15 
01:37:06.080               : Chapter 16 
01:46:30.320               : Chapter 17 
01:55:29.640               : Chapter 18 




IMDB  
http://www.imdb.com/title/tt1832382/

Source: DVD (perfect a/v/sync quality)

How To Get Your Maxspeed (uTorrent)

Torrent Client - Preferences - Bandwidth - Number of connections - Set aprox. 500 for each 
Torrent Client - Preferences - BiTorrent - Protocol Encryption - Forced
Bandwidth Allocation - High (Set download/upload limit - Unlimited)
Stop Other Active Torrents - Start downloading and wait for connections.
Enjoy and Seed for at least 1:1 ratio. Don\\\\\\\'t forget to say thanks/leave reviews.
Don\\\\\\\'t trust IMDb robot or bad ratings,always watch some trailers first.
Ignore stupid comments/fake/mislabeled/no-DVDrips/CAM/TS/RAR uploads.
Please spread this release/torrent to your friends/forums/etc.
If you need translation subs visit some subtitles sites.
Report if you see online streaming or other spam links.

Recommended movie player VLC PLAYER.

ENJOY - mas_mahmoudi MASOUD